<svg width="14" height="14" viewBox="0 0 14 14" fill="none" xmlns="http://www.w3.org/2000/svg">
<path d="M5.2177 7.70713C5.60823 7.3166 5.60824 6.68343 5.21771 6.29291L0.5376 1.6128C0.240692 1.31589 0.240692 0.834505 0.537601 0.537597C0.834508 0.24069 1.31589 0.240689 1.6128 0.537594L6.29291 5.21766C6.68343 5.60818 7.31659 5.60818 7.70712 5.21766L12.3872 0.537596C12.6841 0.24069 13.1655 0.240691 13.4624 0.537599C13.7593 0.834507 13.7593 1.31589 13.4624 1.61279L8.78231 6.29291C8.39179 6.68343 8.39179 7.3166 8.78232 7.70712L13.4624 12.3871C13.7593 12.684 13.7593 13.1654 13.4624 13.4624C13.1655 13.7593 12.6841 13.7593 12.3872 13.4624L7.70712 8.78231C7.31659 8.39179 6.68343 8.39179 6.29291 8.78231L1.61283 13.4624C1.31591 13.7593 0.834498 13.7593 0.537585 13.4624C0.240683 13.1654 0.240693 12.684 0.537607 12.3871L5.2177 7.70713Z" fill="black"/>
</svg>
