<svg width="22" height="23" viewBox="0 0 22 23" fill="none" xmlns="http://www.w3.org/2000/svg">
<path d="M19 7.56331C17.597 4.50388 14.537 2.39535 11 2.39535C9.8181 2.39535 8.64778 2.63596 7.55585 3.10345C6.46392 3.57093 5.47177 4.25614 4.63604 5.11994C3.80031 5.98374 3.13738 7.00922 2.68508 8.13783C2.23279 9.26644 2 10.4761 2 11.6977C2 12.9193 2.23279 14.1289 2.68508 15.2575C3.13738 16.3861 3.80031 17.4116 4.63604 18.2754C5.47177 19.1392 6.46392 19.8244 7.55585 20.2919C8.64778 20.7594 9.8181 21 11 21C13.3869 21 15.6761 20.0199 17.364 18.2754M20 1V8.5969H13.7" stroke="#3D9E89" stroke-width="3"/>
</svg>
